<svg width="30" height="30" viewBox="0 0 30 30" fill="none" xmlns="http://www.w3.org/2000/svg">
<g opacity="0.4">
<path d="M23.75 13.6781H6.25C4.86929 13.6781 3.75 14.7916 3.75 16.1651V24.8693C3.75 26.2428 4.86929 27.3563 6.25 27.3563H23.75C25.1307 27.3563 26.25 26.2428 26.25 24.8693V16.1651C26.25 14.7916 25.1307 13.6781 23.75 13.6781Z" stroke="#3A250B" stroke-width="2" stroke-linecap="round" stroke-linejoin="round"/>
<path d="M8.75 13.6781V8.70427C8.75 7.05533 9.40848 5.47393 10.5806 4.30795C11.7527 3.14198 13.3424 2.48694 15 2.48694C16.6576 2.48694 18.2473 3.14198 19.4194 4.30795C20.5915 5.47393 21.25 7.05533 21.25 8.70427V13.6781" stroke="#3A250B" stroke-width="2" stroke-linecap="round" stroke-linejoin="round"/>
</g>
</svg>
