<svg width="32" height="30" viewBox="0 0 32 30" fill="none" xmlns="http://www.w3.org/2000/svg">
<path d="M3.91675 7.5H6.52794H27.4175" stroke="white" stroke-width="2" stroke-linecap="round" stroke-linejoin="round"/>
<path d="M24.8064 7.5V25C24.8064 25.663 24.5313 26.2989 24.0416 26.7678C23.5519 27.2366 22.8878 27.5 22.1952 27.5H9.13927C8.44674 27.5 7.78257 27.2366 7.29288 26.7678C6.80318 26.2989 6.52808 25.663 6.52808 25V7.5M10.4449 7.5V5C10.4449 4.33696 10.72 3.70107 11.2097 3.23223C11.6994 2.76339 12.3635 2.5 13.0561 2.5H18.2784C18.971 2.5 19.6351 2.76339 20.1248 3.23223C20.6145 3.70107 20.8896 4.33696 20.8896 5V7.5" stroke="white" stroke-width="2" stroke-linecap="round" stroke-linejoin="round"/>
<path d="M13.0559 13.75V21.25" stroke="white" stroke-width="2" stroke-linecap="round" stroke-linejoin="round"/>
<path d="M18.2783 13.75V21.25" stroke="white" stroke-width="2" stroke-linecap="round" stroke-linejoin="round"/>
</svg>
