<svg width="28" height="27" viewBox="0 0 28 27" fill="none" xmlns="http://www.w3.org/2000/svg">
<path d="M19.4465 3.37497C19.7469 3.0795 20.1036 2.84512 20.4961 2.68521C20.8887 2.5253 21.3094 2.44299 21.7343 2.44299C22.1592 2.44299 22.5799 2.5253 22.9724 2.68521C23.365 2.84512 23.7216 3.0795 24.0221 3.37497C24.3225 3.67045 24.5608 4.02123 24.7234 4.40728C24.886 4.79334 24.9697 5.20711 24.9697 5.62497C24.9697 6.04284 24.886 6.45661 24.7234 6.84266C24.5608 7.22872 24.3225 7.5795 24.0221 7.87497L8.57933 23.0625L2.28784 24.75L4.0037 18.5625L19.4465 3.37497Z" stroke="white" stroke-width="2" stroke-linecap="round" stroke-linejoin="round"/>
</svg>
