<svg width="22" height="21" viewBox="0 0 22 21" fill="none" xmlns="http://www.w3.org/2000/svg">
<path d="M16.1298 1.79382C16.3947 1.54215 16.7092 1.34251 17.0553 1.20631C17.4015 1.0701 17.7725 1 18.1471 1C18.5217 1 18.8927 1.0701 19.2389 1.20631C19.585 1.34251 19.8995 1.54215 20.1644 1.79382C20.4293 2.04549 20.6395 2.34426 20.7828 2.67309C20.9262 3.00191 21 3.35434 21 3.71026C21 4.06617 20.9262 4.4186 20.7828 4.74743C20.6395 5.07625 20.4293 5.37503 20.1644 5.6267L6.54759 18.5627L1 20L2.51298 14.7298L16.1298 1.79382Z" stroke="#D0DAC4" stroke-width="2" stroke-linecap="round" stroke-linejoin="round"/>
</svg>
