<svg width="75" height="77" viewBox="0 0 75 77" fill="none" xmlns="http://www.w3.org/2000/svg">
<ellipse opacity="0.2" cx="37.5" cy="38.5" rx="37.5" ry="38.5" fill="#B2C1A2"/>
<ellipse opacity="0.2" cx="37.5" cy="38.5" rx="37.5" ry="38.5" fill="#B2C1A2"/>
<path d="M62.4185 30.5764C61.8403 29.1498 60.8798 28.1212 59.64 27.6031L59.6234 27.5966C59.0591 27.3673 58.4583 27.2499 57.8523 27.2505H57.7856C54.9477 27.2949 52.0504 29.7987 50.5773 33.4815C49.497 36.1746 49.373 39.0711 50.246 41.2299C50.8232 42.6576 51.7858 43.6861 53.0308 44.2042L53.0443 44.2096C53.6086 44.439 54.2094 44.5564 54.8154 44.5557C57.6804 44.5557 60.6079 42.0519 62.1081 38.3205C63.1749 35.6306 63.2926 32.7363 62.4185 30.5764ZM51.0795 46.4604C49.4428 45.4394 47.8957 44.4735 46.8852 42.7387C44.0973 37.9365 42.4137 35.0379 37.9995 35.0379C33.5854 35.0379 31.8977 37.9365 29.1035 42.7387C28.0909 44.4757 26.5407 45.4426 24.8988 46.468C23.0162 47.6425 21.0712 48.8561 20.2315 51.2442C19.905 52.1051 19.7405 53.023 19.747 53.9481C19.747 57.8364 22.6641 61 26.2479 61C28.0971 61 30.0651 60.3348 32.1477 59.6307C34.1501 58.9537 36.2201 58.2539 38.01 58.2539C39.7998 58.2539 41.8647 58.9537 43.8597 59.6307C45.9381 60.3305 47.8967 60.9957 49.7512 60.9957C53.3298 60.9957 56.2416 57.8321 56.2416 53.9438C56.2446 53.0179 56.0766 52.1001 55.7468 51.2399C54.9071 48.8496 52.961 47.635 51.0795 46.4604ZM26.9564 31.2361C28.1961 32.8509 29.7692 33.74 31.3861 33.74C31.6069 33.7399 31.8273 33.7229 32.0456 33.6892C35.4179 33.1743 37.5193 28.9021 36.8296 23.955C36.541 21.8751 35.7701 19.938 34.6658 18.5017C33.4281 16.8901 31.8529 16.0022 30.237 16.0022C30.0163 16.0022 29.7959 16.0192 29.5776 16.053C26.2052 16.5678 24.1039 20.84 24.7936 25.7872C25.0811 27.8638 25.852 29.7987 26.9564 31.2361ZM43.9545 33.6892C44.1729 33.7229 44.3933 33.7399 44.614 33.74C46.2319 33.74 47.804 32.8509 49.0438 31.2361C50.1471 29.7987 50.9138 27.8638 51.2055 25.785C51.8952 20.84 49.7939 16.5678 46.4215 16.0508C46.2032 16.017 45.9828 16.0001 45.7621 16C44.1462 16.0022 42.571 16.8901 41.3333 18.5017C40.229 19.938 39.4581 21.8751 39.1705 23.9571C38.4809 28.9021 40.5822 33.1743 43.9545 33.6892ZM22.9548 44.2096L22.9693 44.2042C24.2122 43.6861 25.1738 42.6587 25.7499 41.2321C26.623 39.0689 26.5 36.1757 25.4218 33.4826C23.9289 29.7555 21.0024 27.2505 18.1406 27.2505C17.5345 27.2496 16.9337 27.367 16.3695 27.5966L16.3549 27.6021C15.1151 28.1158 14.1535 29.1476 13.5774 30.5742C12.7044 32.7374 12.8273 35.6306 13.9056 38.3237C15.3985 42.0508 18.325 44.5557 21.1868 44.5557C21.7918 44.5562 22.3915 44.4388 22.9548 44.2096Z" fill="#3A250B"/>
</svg>
