<svg width="45" height="40" viewBox="0 0 45 40" fill="none" xmlns="http://www.w3.org/2000/svg">
<path opacity="0.5" d="M44.4767 12.9568C43.9563 11.6887 43.0918 10.7744 41.976 10.3139L41.961 10.3081C41.4532 10.1043 40.9125 9.9999 40.3671 10.0005H40.3071C37.7529 10.0399 35.1454 12.2655 33.8196 15.5391C32.8473 17.933 32.7357 20.5076 33.5214 22.4266C34.0409 23.6956 34.9072 24.6099 36.0277 25.0704L36.0399 25.0752C36.5478 25.2791 37.0885 25.3835 37.6339 25.3829C40.2123 25.3829 42.8471 23.1572 44.1973 19.8404C45.1574 17.4494 45.2634 14.8767 44.4767 12.9568ZM34.2715 27.0759C32.7985 26.1683 31.4061 25.3098 30.4966 23.7677C27.9875 19.4991 26.4723 16.9226 22.4996 16.9226C18.5269 16.9226 17.0079 19.4991 14.4932 23.7677C13.5818 25.3117 12.1866 26.1712 10.7089 27.0826C9.01461 28.1267 7.26405 29.2054 6.50832 31.3282C6.21446 32.0934 6.06646 32.9093 6.07232 33.7317C6.07232 37.1879 8.69769 40 11.9231 40C13.5874 40 15.3586 39.4087 17.2329 38.7829C19.0351 38.181 20.8981 37.559 22.509 37.559C24.1198 37.559 25.9782 38.181 27.7738 38.7829C29.6443 39.4049 31.4071 39.9962 33.0761 39.9962C36.2968 39.9962 38.9175 37.1841 38.9175 33.7278C38.9201 32.9048 38.769 32.089 38.4721 31.3243C37.7164 29.1996 35.9649 28.12 34.2715 27.0759ZM12.5607 13.5432C13.6765 14.9786 15.0923 15.7689 16.5475 15.7689C16.7462 15.7688 16.9446 15.7537 17.141 15.7237C20.1761 15.2661 22.0673 11.4685 21.4466 7.0711C21.1869 5.22232 20.4931 3.50046 19.4992 2.22372C18.3853 0.791232 16.9676 0.00192284 15.5133 0.00192284C15.3147 0.00197156 15.1163 0.0170747 14.9198 0.0471088C11.8847 0.504735 9.99349 4.30226 10.6142 8.69971C10.873 10.5456 11.5668 12.2655 12.5607 13.5432ZM27.8591 15.7237C28.0556 15.7537 28.2539 15.7688 28.4526 15.7689C29.9087 15.7689 31.3236 14.9786 32.4394 13.5432C33.4324 12.2655 34.1224 10.5456 34.385 8.69778C35.0057 4.30226 33.1145 0.504735 30.0794 0.0451859C29.8829 0.0151519 29.6845 4.87167e-05 29.4859 0C28.0316 0.0019228 26.6139 0.791232 25.5 2.22372C24.5061 3.50046 23.8123 5.22232 23.5535 7.07302C22.9328 11.4685 24.824 15.2661 27.8591 15.7237ZM8.95928 25.0752L8.97241 25.0704C10.091 24.6099 10.9564 23.6966 11.4749 22.4285C12.2607 20.5057 12.15 17.934 11.1796 15.5401C9.83597 12.2271 7.20217 10.0005 4.6265 10.0005C4.08107 9.99967 3.54035 10.104 3.03253 10.3081L3.0194 10.3129C1.90362 10.7696 1.03819 11.6868 0.519683 12.9549C-0.266051 14.8777 -0.15541 17.4494 0.815036 19.8433C2.15866 23.1563 4.79246 25.3829 7.36813 25.3829C7.91262 25.3833 8.45235 25.279 8.95928 25.0752Z" fill="#3A250B"/>
</svg>
