<svg width="29" height="27" viewBox="0 0 29 27" fill="none" xmlns="http://www.w3.org/2000/svg">
<path d="M3.625 6.75H6.04167H25.375" stroke="#FFA686" stroke-width="2" stroke-linecap="round" stroke-linejoin="round"/>
<path d="M22.9584 6.75V22.5C22.9584 23.0967 22.7037 23.669 22.2505 24.091C21.7973 24.5129 21.1826 24.75 20.5417 24.75H8.45835C7.81741 24.75 7.20273 24.5129 6.74951 24.091C6.2963 23.669 6.04169 23.0967 6.04169 22.5V6.75M9.66669 6.75V4.5C9.66669 3.90326 9.9213 3.33097 10.3745 2.90901C10.8277 2.48705 11.4424 2.25 12.0834 2.25H16.9167C17.5576 2.25 18.1723 2.48705 18.6255 2.90901C19.0787 3.33097 19.3334 3.90326 19.3334 4.5V6.75" stroke="#FFA686" stroke-width="2" stroke-linecap="round" stroke-linejoin="round"/>
<path d="M12.0833 12.375V19.125" stroke="#FFA686" stroke-width="2" stroke-linecap="round" stroke-linejoin="round"/>
<path d="M16.9167 12.375V19.125" stroke="#FFA686" stroke-width="2" stroke-linecap="round" stroke-linejoin="round"/>
</svg>
